ik_full
version=1
nRows=24
nColumns=40
inDegrees=no
endheader
time	pelvis_tilt	pelvis_list	pelvis_rotation	pelvis_tx	pelvis_ty	pelvis_tz	hip_flexion_r	hip_adduction_r	hip_rotation_r	knee_angle_r	ankle_angle_r	subtalar_angle_r	mtp_angle_r	hip_flexion_l	hip_adduction_l	hip_rotation_l	knee_angle_l	ankle_angle_l	subtalar_angle_l	mtp_angle_l	lumbar_extension	lumbar_bending	lumbar_rotation	arm_flex_r	arm_add_r	arm_rot_r	elbow_flex_r	pro_sup_r	wrist_flex_r	wrist_dev_r	arm_flex_l	arm_add_l	arm_rot_l	elbow_flex_l	pro_sup_l	wrist_flex_l	wrist_dev_l	knee_angle_r_beta	knee_angle_l_beta
0.32750000	0.06199328	-0.13373363	0.01366099	0.30010079	0.92595081	-0.24642233	-0.07022233	0.22718094	-0.16980145	0.16959087	0.16130951	0.01861229	-0.00040485	0.43965525	-0.24337051	0.04686156	1.18470232	0.05678487	0.02034670	-0.00088755	-0.15502208	0.15555490	0.01968201	-0.01947528	-0.25156395	-0.07881078	0.76879346	1.35399212	-0.00009351	0.00046255	-0.11932707	-0.15284966	-0.14484660	0.53221919	1.48145315	-0.00013359	0.00030875	0.16959087	1.18470232
0.33742424	0.06034024	-0.12731672	0.00916115	0.31081709	0.92537755	-0.24554818	-0.08706596	0.22139199	-0.16392565	0.16189002	0.16782518	0.01861229	-0.00040485	0.46092573	-0.23572370	0.03966653	1.14888912	0.06546720	0.02034670	-0.00088755	-0.15520499	0.14708395	0.03236168	-0.00951632	-0.25411352	-0.08526372	0.78895269	1.35478192	-0.00009351	0.00046255	-0.12871205	-0.15038150	-0.15536818	0.51816226	1.48144744	-0.00013359	0.00030875	0.16189002	1.14888912
0.34734848	0.05891544	-0.12088842	0.00448314	0.32151941	0.92464629	-0.24472230	-0.10398375	0.21531781	-0.15840295	0.15451638	0.17469624	0.01861229	-0.00040485	0.47934977	-0.22818622	0.03079525	1.10765262	0.07312111	0.02034670	-0.00088755	-0.15572584	0.13874818	0.04501507	0.00036022	-0.25661884	-0.09226380	0.80860477	1.35551724	-0.00009351	0.00046255	-0.13807344	-0.14821923	-0.16607202	0.50521097	1.48144666	-0.00013359	0.00030875	0.15451638	1.10765262
0.35727273	0.05775834	-0.11432014	-0.00039729	0.33222584	0.92375444	-0.24393765	-0.12112213	0.20884686	-0.15310409	0.14733017	0.18194027	0.01861229	-0.00040485	0.49474587	-0.22061625	0.02015441	1.06126468	0.07960491	0.02034670	-0.00088755	-0.15663402	0.13035615	0.05766461	0.00999160	-0.25902527	-0.09980757	0.82791806	1.35619428	-0.00009351	0.00046255	-0.14742517	-0.14643654	-0.17622269	0.49336902	1.48149536	-0.00013359	0.00030875	0.14733017	1.06126468
0.36719697	0.05674938	-0.10782125	-0.00529294	0.34294426	0.92268182	-0.24320085	-0.13831582	0.20222606	-0.14812085	0.14029884	0.18933598	0.01861229	-0.00040485	0.50743325	-0.21303183	0.00822426	1.01035553	0.08480750	0.02034670	-0.00088755	-0.15777557	0.12213854	0.06950463	0.01977447	-0.26150123	-0.10646337	0.84649542	1.35697836	-0.00009351	0.00046255	-0.15708626	-0.14499983	-0.18551721	0.48267022	1.48142842	-0.00013359	0.00030875	0.14029884	1.01035553
0.37712121	0.05619343	-0.10085424	-0.01027874	0.35371180	0.92145964	-0.24250642	-0.15605854	0.19486441	-0.14318664	0.13315333	0.19689719	0.01861229	-0.00040485	0.51673316	-0.20486154	-0.00540921	0.95489005	0.08853689	0.02034670	-0.00088755	-0.15941174	0.11344010	0.08068426	0.02944485	-0.26390066	-0.11243663	0.86445372	1.35794768	-0.00009351	0.00046255	-0.16686981	-0.14399570	-0.19362083	0.47279006	1.48084047	-0.00013359	0.00030875	0.13315333	0.95489005
0.38704545	0.05624331	-0.09323252	-0.01527133	0.36455415	0.92010217	-0.24187040	-0.17457945	0.18655672	-0.13819199	0.12575581	0.20450593	0.01861229	-0.00040485	0.52244963	-0.19565134	-0.02035399	0.89524945	0.09093544	0.02034670	-0.00088755	-0.16165152	0.10407672	0.09113895	0.03887315	-0.26617461	-0.11779588	0.88183317	1.35917110	-0.00009351	0.00046255	-0.17657168	-0.14340929	-0.20024939	0.46327436	1.47950537	-0.00013359	0.00030875	0.12575581	0.89524945
0.39696970	0.05626033	-0.08586633	-0.01980470	0.37546470	0.91854507	-0.24134445	-0.19292357	0.17832371	-0.13352083	0.11842954	0.21179001	0.01861229	-0.00040485	0.52609414	-0.18566697	-0.03446198	0.83289602	0.09266136	0.02034670	-0.00088755	-0.16376160	0.09523586	0.09988244	0.04851179	-0.26864085	-0.12126665	0.89815574	1.36076744	-0.00009351	0.00046255	-0.18638330	-0.14295223	-0.20553864	0.45381821	1.47758843	-0.00013359	0.00030875	0.11842954	0.83289602
0.40689394	0.05585862	-0.07906965	-0.02370864	0.38645921	0.91676474	-0.24095922	-0.21050152	0.17049505	-0.12939019	0.11149687	0.21876819	0.01861229	-0.00040485	0.52834365	-0.17488230	-0.04645992	0.76855633	0.09421805	0.02034670	-0.00088755	-0.16527799	0.08736566	0.10682832	0.05826259	-0.27137352	-0.12287913	0.91332953	1.36274264	-0.00009351	0.00046255	-0.19620505	-0.14247195	-0.20973131	0.44412756	1.47545598	-0.00013359	0.00030875	0.11149687	0.76855633
0.41681818	0.05555487	-0.07218873	-0.02718936	0.39757830	0.91483371	-0.24071378	-0.22788391	0.16226794	-0.12576159	0.10511779	0.22579532	0.01861229	-0.00040485	0.52807631	-0.16268004	-0.05637643	0.70193243	0.09581491	0.02034670	-0.00088755	-0.16676089	0.07970077	0.11281842	0.06757953	-0.27414572	-0.12390355	0.92770121	1.36500444	-0.00009351	0.00046255	-0.20556957	-0.14210511	-0.21260503	0.43391738	1.47348794	-0.00013359	0.00030875	0.10511779	0.70193243
0.42674242	0.05555342	-0.06511478	-0.03032512	0.40884927	0.91279414	-0.24060828	-0.24514734	0.15345524	-0.12277027	0.09969359	0.23304621	0.01861229	-0.00040485	0.52488475	-0.14900577	-0.06373428	0.63331164	0.09781826	0.02034670	-0.00088755	-0.16844347	0.07210835	0.11821472	0.07626063	-0.27692526	-0.12467756	0.94132721	1.36739826	-0.00009351	0.00046255	-0.21429692	-0.14189594	-0.21392214	0.42318451	1.47195089	-0.00013359	0.00030875	0.09969359	0.63331164
0.43666667	0.05571303	-0.05803749	-0.03318706	0.42029917	0.91065889	-0.24063474	-0.26192724	0.14421982	-0.12064147	0.09572904	0.24059258	0.01861229	-0.00040485	0.51897278	-0.13424341	-0.06814390	0.56334629	0.10040664	0.02034670	-0.00088755	-0.17012618	0.06478956	0.12321080	0.08416453	-0.27977592	-0.12509255	0.95412201	1.36976760	-0.00009351	0.00046255	-0.22238617	-0.14182293	-0.21350786	0.41210057	1.47097999	-0.00013359	0.00030875	0.09572904	0.56334629
0.44659091	0.05715486	-0.05006699	-0.03622081	0.43197950	0.90855748	-0.24075642	-0.27949815	0.13343980	-0.11949458	0.09327364	0.24856901	0.01861229	-0.00040485	0.50852746	-0.11792110	-0.07069145	0.49181196	0.10289701	0.02034670	-0.00088755	-0.17297996	0.05659562	0.12850569	0.09099043	-0.28250894	-0.12570626	0.96626845	1.37228006	-0.00009351	0.00046255	-0.22954991	-0.14215384	-0.21040686	0.40064063	1.47070177	-0.00013359	0.00030875	0.09327364	0.49181196
0.45651515	0.06106130	-0.04041798	-0.03996520	0.44393729	0.90661762	-0.24092056	-0.29928903	0.12009556	-0.11931543	0.09217143	0.25689215	0.01861229	-0.00040485	0.49190693	-0.09973156	-0.07294884	0.41889218	0.10434207	0.02034670	-0.00088755	-0.17825623	0.04644725	0.13458185	0.09667289	-0.28493362	-0.12676890	0.97780042	1.37533889	-0.00009351	0.00046255	-0.23568236	-0.14301998	-0.20421896	0.38893136	1.47109675	-0.00013359	0.00030875	0.09217143	0.41889218
0.46643939	0.06673149	-0.02982623	-0.04466316	0.45618838	0.90479171	-0.24108213	-0.32047956	0.10497439	-0.11998377	0.09255241	0.26515838	0.01861229	-0.00040485	0.47073232	-0.08081569	-0.07567399	0.34662302	0.10431433	0.02034670	-0.00088755	-0.18508295	0.03509062	0.14125731	0.10136851	-0.28714057	-0.12762818	0.98831131	1.37908333	-0.00009351	0.00046255	-0.24125963	-0.14399665	-0.19654221	0.37759409	1.47183671	-0.00013359	0.00030875	0.09255241	0.34662302
0.47636364	0.07357445	-0.01875432	-0.05059817	0.46876076	0.90304341	-0.24120419	-0.34240868	0.08851848	-0.12153285	0.09443068	0.27305723	0.01861229	-0.00040485	0.44646235	-0.06182874	-0.07933725	0.27698246	0.10222807	0.02034670	-0.00088755	-0.19259430	0.02296760	0.14855084	0.10500900	-0.28915246	-0.12806075	0.99753354	1.38345751	-0.00009351	0.00046255	-0.24666124	-0.14477345	-0.18893141	0.36710116	1.47272353	-0.00013359	0.00030875	0.09443068	0.27698246
0.48628788	0.08159058	-0.00713340	-0.05790389	0.48167965	0.90138436	-0.24126063	-0.36518193	0.07061974	-0.12405013	0.09753249	0.28026475	0.01861229	-0.00040485	0.41985107	-0.04275135	-0.08436868	0.21205411	0.09797297	0.02034670	-0.00088755	-0.20062036	0.00991019	0.15657557	0.10742580	-0.29081225	-0.12839034	1.00543026	1.38818821	-0.00009351	0.00046255	-0.25198668	-0.14536176	-0.18203605	0.35760567	1.47384827	-0.00013359	0.00030875	0.09753249	0.21205411
0.49621212	0.08883593	0.00363117	-0.06579851	0.49489257	0.89965162	-0.24126293	-0.38662166	0.05321138	-0.12723208	0.10181831	0.28602070	0.01861229	-0.00040485	0.39520731	-0.02517150	-0.09070553	0.15653164	0.09363203	0.02034670	-0.00088755	-0.20710137	-0.00237013	0.16462352	0.10868262	-0.29211162	-0.12834198	1.01167311	1.39231143	-0.00009351	0.00046255	-0.25755758	-0.14552585	-0.17716987	0.34947914	1.47499906	-0.00013359	0.00030875	0.10181831	0.15653164
0.50613636	0.09371008	0.01263903	-0.07356530	0.50836209	0.89773005	-0.24123161	-0.40490545	0.03764621	-0.13097336	0.10732200	0.28980350	0.01861229	-0.00040485	0.37585018	-0.01013743	-0.09801090	0.11390391	0.09112729	0.02034670	-0.00088755	-0.21032267	-0.01271010	0.17214444	0.10873775	-0.29299474	-0.12770900	1.01596214	1.39499484	-0.00009351	0.00046255	-0.26356600	-0.14520410	-0.17505786	0.34294466	1.47581773	-0.00013359	0.00030875	0.10732200	0.11390391
0.51606061	0.09776340	0.02146759	-0.08152745	0.52214582	0.89578160	-0.24114517	-0.42187917	0.02205823	-0.13588667	0.11369030	0.29175370	0.01861229	-0.00040485	0.35930080	0.00407086	-0.10610596	0.08312146	0.08981858	0.02034670	-0.00088755	-0.21179871	-0.02302074	0.17950260	0.10736680	-0.29308764	-0.12704914	1.01842012	1.39660178	-0.00009351	0.00046255	-0.26972512	-0.14495030	-0.17454919	0.33771659	1.47644879	-0.00013359	0.00030875	0.11369030	0.08312146
0.52598485	0.10235323	0.03132898	-0.08987188	0.53626773	0.89396834	-0.24099284	-0.43917353	0.00504523	-0.14242904	0.12055196	0.29185057	0.01861229	-0.00040485	0.34360861	0.01880785	-0.11518677	0.06319241	0.08887413	0.02034670	-0.00088755	-0.21293271	-0.03479590	0.18665110	0.10468259	-0.29206577	-0.12655078	1.01904828	1.39779164	-0.00009351	0.00046255	-0.27588275	-0.14513546	-0.17497635	0.33367128	1.47721028	-0.00013359	0.00030875	0.12055196	0.06319241
0.53590909	0.10678680	0.04186342	-0.09817020	0.55068838	0.89225020	-0.24079640	-0.45598544	-0.01278070	-0.15051351	0.12791166	0.28978822	0.01861229	-0.00040485	0.33022072	0.03371033	-0.12556765	0.05463329	0.08809212	0.02034670	-0.00088755	-0.21303497	-0.04752441	0.19287071	0.10105375	-0.28990046	-0.12568297	1.01749818	1.39864767	-0.00009351	0.00046255	-0.28226178	-0.14558657	-0.17710415	0.33103078	1.47813823	-0.00013359	0.00030875	0.12791166	0.05463329
0.54583333	0.11022781	0.05275074	-0.10607466	0.56537771	0.89059004	-0.24059359	-0.47120409	-0.03090921	-0.16003262	0.13605671	0.28553929	0.01861229	-0.00040485	0.32013054	0.04850103	-0.13694737	0.05628575	0.08598140	0.02034670	-0.00088755	-0.21123773	-0.06066114	0.19774567	0.09664379	-0.28668969	-0.12407939	1.01351308	1.39908043	-0.00009351	0.00046255	-0.28900745	-0.14607793	-0.18154718	0.32987122	1.47912873	-0.00013359	0.00030875	0.13605671	0.05628575
0.55575758	0.11237445	0.06406179	-0.11338337	0.58032112	0.88899447	-0.24042385	-0.48433892	-0.04936609	-0.17107518	0.14546102	0.27930722	0.01861229	-0.00040485	0.31302801	0.06339725	-0.14824357	0.06521842	0.07983639	0.02034670	-0.00088755	-0.20728947	-0.07412645	0.20128751	0.09136607	-0.28254616	-0.12188991	1.00715853	1.39909439	-0.00009351	0.00046255	-0.29596092	-0.14654034	-0.18821524	0.33001278	1.48007563	-0.00013359	0.00030875	0.14546102	0.06521842
